<?xml version="1.0" encoding="iso-8859-1"?>
<!-- Generator: Adobe Illustrator 19.0.0, SVG Export Plug-In . SVG Version: 6.00 Build 0)  -->
<svg version="1.1" id="Capa_1" xmlns="http://www.w3.org/2000/svg" xmlns:xlink="http://www.w3.org/1999/xlink" x="0px" y="0px"
	 viewBox="0 0 425.223 425.223" style="enable-background:new 0 0 425.223 425.223;" xml:space="preserve">
<g>
	<g>
		<rect x="365.88" y="167.416" width="40" height="223"/>
	</g>
</g>
<g>
	<g>
		<rect x="250.88" y="239.416" width="40" height="151"/>
	</g>
</g>
<g>
	<g>
		<rect x="134.88" y="314.416" width="40" height="76"/>
	</g>
</g>
<g>
	<g>
		<rect x="19.88" y="293.416" width="40" height="97"/>
	</g>
</g>
<g>
	<g>
		<path d="M415.58,48.516c-14.3-16.5-39.2-18.4-55.8-4.1c-11.9,10.3-16.6,26.7-11.9,41.7l-47.8,33.9c-14.7-16.3-39.9-17.6-56.2-2.8
			c-12.4,11.2-16.4,28.9-10.2,44.4l-44.6,37.6c-11.6-18.7-36.1-24.5-54.8-12.9c-8.3,5.2-14.5,13.2-17.2,22.6l-37.8-15.3
			c-3.1-21.8-23.2-36.9-45-33.9c-21.8,3-36.9,23.2-33.9,45c3.1,21.8,23.2,36.9,45,33.9c15.5-2.2,28.3-13.2,32.7-28.2l37.8,15.3
			c2.9,21.8,22.9,37.1,44.7,34.3c21.8-2.8,37.1-22.9,34.3-44.7l47.8-40.3c15.6,15.5,40.8,15.4,56.3-0.2c10.7-10.7,14.3-26.6,9.4-41
			l47.3-33.6c14.3,16.5,39.2,18.4,55.8,4.1S429.88,65.116,415.58,48.516z"/>
	</g>
</g>
<g>
</g>
<g>
</g>
<g>
</g>
<g>
</g>
<g>
</g>
<g>
</g>
<g>
</g>
<g>
</g>
<g>
</g>
<g>
</g>
<g>
</g>
<g>
</g>
<g>
</g>
<g>
</g>
<g>
</g>
</svg>
