<?xml version="1.0" encoding="iso-8859-1"?>
<!-- Generator: Adobe Illustrator 16.0.0, SVG Export Plug-In . SVG Version: 6.00 Build 0)  -->
<!DOCTYPE svg PUBLIC "-//W3C//DTD SVG 1.1//EN" "http://www.w3.org/Graphics/SVG/1.1/DTD/svg11.dtd">
<svg version="1.1" id="Capa_1" xmlns="http://www.w3.org/2000/svg" xmlns:xlink="http://www.w3.org/1999/xlink" x="0px" y="0px"
	 width="555.115px" height="555.115px" viewBox="0 0 555.115 555.115" style="enable-background:new 0 0 555.115 555.115;"
	 xml:space="preserve">
<g>
	<g>
		<path d="M277.557,103.272c-96.103,0-174.285,78.186-174.285,174.285s78.183,174.285,174.285,174.285
			c96.102,0,174.286-78.186,174.286-174.285C451.843,181.458,373.659,103.272,277.557,103.272z"/>
		<path d="M277.557,91.218c5.915,0,10.709-4.795,10.709-10.71V10.71c0-5.915-4.795-10.71-10.709-10.71
			c-5.915,0-10.71,4.795-10.71,10.71v69.798C266.847,86.423,271.642,91.218,277.557,91.218z"/>
		<path d="M544.401,266.847h-69.795c-5.916,0-10.711,4.795-10.711,10.71c0,5.916,4.795,10.71,10.711,10.71h69.795
			c5.914,0,10.711-4.795,10.711-10.71C555.112,271.642,550.315,266.847,544.401,266.847z"/>
		<path d="M277.557,463.896c-5.915,0-10.71,4.795-10.71,10.709v69.799c0,5.916,4.795,10.711,10.71,10.711
			c5.915,0,10.709-4.795,10.709-10.711v-69.799C288.267,468.691,283.472,463.896,277.557,463.896z"/>
		<path d="M91.218,277.557c0-5.915-4.795-10.71-10.71-10.71H10.713c-5.915,0-10.71,4.795-10.71,10.71
			c0,5.916,4.795,10.71,10.71,10.71h69.795C86.423,288.268,91.218,283.473,91.218,277.557z"/>
		<path d="M416.892,148.933c2.742,0,5.482-1.046,7.572-3.137l49.352-49.352c4.184-4.18,4.184-10.964,0-15.144
			c-4.182-4.183-10.963-4.183-15.146,0l-49.352,49.352c-4.184,4.18-4.184,10.964,0,15.144
			C411.411,147.887,414.153,148.933,416.892,148.933z"/>
		<path d="M424.464,409.32c-4.182-4.184-10.963-4.184-15.146,0c-4.184,4.18-4.184,10.965,0,15.145l49.352,49.352
			c2.094,2.094,4.836,3.137,7.574,3.137s5.482-1.047,7.574-3.137c4.182-4.18,4.182-10.965,0-15.145L424.464,409.32z"/>
		<path d="M130.649,409.32l-49.352,49.352c-4.183,4.18-4.183,10.965,0,15.145c2.093,2.094,4.835,3.137,7.574,3.137
			c2.738,0,5.483-1.047,7.573-3.137l49.352-49.352c4.183-4.18,4.183-10.965,0-15.145
			C141.614,405.135,134.833,405.135,130.649,409.32z"/>
		<path d="M130.649,145.793c2.093,2.093,4.835,3.137,7.574,3.137s5.483-1.047,7.573-3.137c4.183-4.18,4.183-10.964,0-15.144
			L96.445,81.298c-4.183-4.183-10.964-4.183-15.147,0c-4.183,4.18-4.183,10.964,0,15.144L130.649,145.793z"/>
	</g>
</g>
<g>
</g>
<g>
</g>
<g>
</g>
<g>
</g>
<g>
</g>
<g>
</g>
<g>
</g>
<g>
</g>
<g>
</g>
<g>
</g>
<g>
</g>
<g>
</g>
<g>
</g>
<g>
</g>
<g>
</g>
</svg>
